HIERARCHY
ROOT hip
{
  OFFSET 70.0379 68.5282 49.2541
  CHANNELS 6 Xposition Yposition Zposition Zrotation Xrotation Yrotation
  JOINT abdomen
  {
    OFFSET 0 20.6881 -0.73152
    CHANNELS 3 Zrotation Xrotation Yrotation
    JOINT chest
    {
      OFFSET 0 11.7043 -0.48768
      CHANNELS 3 Zrotation Xrotation Yrotation
      JOINT neck
      {
        OFFSET 0 22.1894 -2.19456
        CHANNELS 3 Zrotation Xrotation Yrotation
        JOINT head
        {
          OFFSET -0.24384 7.07133 1.2192
          CHANNELS 3 Zrotation Xrotation Yrotation
          JOINT leftEye
          {
            OFFSET 4.14528 8.04674 8.04672
            CHANNELS 3 Zrotation Xrotation Yrotation
            End Site
            {
              OFFSET 1 0 0
            }
          }
          JOINT rightEye
          {
            OFFSET -3.6576 8.04674 8.04672
            CHANNELS 3 Zrotation Xrotation Yrotation
            End Site
            {
              OFFSET 1 0 0
            }
          }
        }
      }
      JOINT rCollar
      {
        OFFSET -2.68224 19.2634 -4.8768
        CHANNELS 3 Zrotation Xrotation Yrotation
        JOINT rShldr
        {
          OFFSET -8.77824 -1.95073 1.46304
          CHANNELS 3 Zrotation Xrotation Yrotation
          JOINT rForeArm
          {
            OFFSET -28.1742 -1.7115 0.48768
            CHANNELS 3 Zrotation Xrotation Yrotation
            JOINT rHand
            {
              OFFSET -22.5879 0.773209 7.07136
              CHANNELS 3 Zrotation Xrotation Yrotation
              JOINT rThumb1
              {
                OFFSET -1.2192 -0.487915 3.41376
                CHANNELS 3 Zrotation Xrotation Yrotation
                JOINT rThumb2
                {
                  OFFSET -3.37035 -0.52449 3.41376
                  CHANNELS 3 Zrotation Xrotation Yrotation
                  End Site
                  {
                    OFFSET -1.78271 -1.18214 1.43049
                  }
                }
              }
              JOINT rIndex1
              {
                OFFSET -7.75947 0.938293 5.60832
                CHANNELS 3 Zrotation Xrotation Yrotation
                JOINT rIndex2
                {
                  OFFSET -2.54057 -0.884171 1.56538
                  CHANNELS 3 Zrotation Xrotation Yrotation
                  End Site
                  {
                    OFFSET -1.62519 -0.234802 1.16502
                  }
                }
              }
              JOINT rMid1
              {
                OFFSET -8.24714 1.18213 3.41376
                CHANNELS 3 Zrotation Xrotation Yrotation
                JOINT rMid2
                {
                  OFFSET -3.10165 -0.590103 1.0647
                  CHANNELS 3 Zrotation Xrotation Yrotation
                  End Site
                  {
                    OFFSET -2.48547 -0.328903 0.83742
                  }
                }
              }
              JOINT rRing1
              {
                OFFSET -8.82822 0.546677 1.51678
                CHANNELS 3 Zrotation Xrotation Yrotation
                JOINT rRing2
                {
                  OFFSET -2.60934 -0.819778 -0.0198488
                  CHANNELS 3 Zrotation Xrotation Yrotation
                  End Site
                  {
                    OFFSET -2.33842 -0.294052 0.168128
                  }
                }
              }
              JOINT rPinky1
              {
                OFFSET -8.27202 -0.0477905 -0.4584
                CHANNELS 3 Zrotation Xrotation Yrotation
                JOINT rPinky2
                {
                  OFFSET -1.82734 -0.647385 -0.700984
                  CHANNELS 3 Zrotation Xrotation Yrotation
                  End Site
                  {
                    OFFSET -1.69225 -0.51767 -0.607171
                  }
                }
              }
            }
          }
        }
      }
      JOINT lCollar
      {
        OFFSET 2.68224 19.2634 -4.8768
        CHANNELS 3 Zrotation Xrotation Yrotation
        JOINT lShldr
        {
          OFFSET 8.77824 -1.95073 1.46304
          CHANNELS 3 Zrotation Xrotation Yrotation
          JOINT lForeArm
          {
            OFFSET 28.1742 -1.7115 0.48768
            CHANNELS 3 Zrotation Xrotation Yrotation
            JOINT lHand
            {
              OFFSET 22.5879 0.773209 7.07136
              CHANNELS 3 Zrotation Xrotation Yrotation
              JOINT lThumb1
              {
                OFFSET 1.2192 -0.487915 3.41376
                CHANNELS 3 Zrotation Xrotation Yrotation
                JOINT lThumb2
                {
                  OFFSET 3.37035 -0.52449 3.41376
                  CHANNELS 3 Zrotation Xrotation Yrotation
                  End Site
                  {
                    OFFSET 1.78271 -1.18214 1.43049
                  }
                }
              }
              JOINT lIndex1
              {
                OFFSET 7.75947 0.938293 5.60832
                CHANNELS 3 Zrotation Xrotation Yrotation
                JOINT lIndex2
                {
                  OFFSET 2.54057 -0.884171 1.56538
                  CHANNELS 3 Zrotation Xrotation Yrotation
                  End Site
                  {
                    OFFSET 1.62519 -0.234802 1.16502
                  }
                }
              }
              JOINT lMid1
              {
                OFFSET 8.24714 1.18213 3.41376
                CHANNELS 3 Zrotation Xrotation Yrotation
                JOINT lMid2
                {
                  OFFSET 3.10165 -0.590103 1.0647
                  CHANNELS 3 Zrotation Xrotation Yrotation
                  End Site
                  {
                    OFFSET 2.48547 -0.328903 0.83742
                  }
                }
              }
              JOINT lRing1
              {
                OFFSET 8.82822 0.546677 1.51678
                CHANNELS 3 Zrotation Xrotation Yrotation
                JOINT lRing2
                {
                  OFFSET 2.60934 -0.819778 -0.0198488
                  CHANNELS 3 Zrotation Xrotation Yrotation
                  End Site
                  {
                    OFFSET 2.33842 -0.294052 0.168128
                  }
                }
              }
              JOINT lPinky1
              {
                OFFSET 8.27202 -0.0477905 -0.4584
                CHANNELS 3 Zrotation Xrotation Yrotation
                JOINT lPinky2
                {
                  OFFSET 1.82734 -0.647385 -0.700984
                  CHANNELS 3 Zrotation Xrotation Yrotation
                  End Site
                  {
                    OFFSET 1.69225 -0.51767 -0.607171
                  }
                }
              }
            }
          }
        }
      }
    }
  }
  JOINT rButtock
  {
    OFFSET -8.77824 4.35084 1.2192
    CHANNELS 3 Zrotation Xrotation Yrotation
    JOINT rThigh
    {
      OFFSET 0 -1.70687 -2.19456
      CHANNELS 3 Zrotation Xrotation Yrotation
      JOINT rShin
      {
        OFFSET 0 -36.8199 0.73152
        CHANNELS 3 Zrotation Xrotation Yrotation
        JOINT rFoot
        {
          OFFSET 0.73152 -45.1104 -5.12064
          CHANNELS 3 Zrotation Xrotation Yrotation
          End Site
          {
            OFFSET -1.1221 -3.69964 12.103
          }
        }
      }
    }
  }
  JOINT lButtock
  {
    OFFSET 8.77824 4.35084 1.2192
    CHANNELS 3 Zrotation Xrotation Yrotation
    JOINT lThigh
    {
      OFFSET 0 -1.70687 -2.19456
      CHANNELS 3 Zrotation Xrotation Yrotation
      JOINT lShin
      {
        OFFSET 0 -36.8199 0.73152
        CHANNELS 3 Zrotation Xrotation Yrotation
        JOINT lFoot
        {
          OFFSET -0.73152 -45.1104 -5.12064
          CHANNELS 3 Zrotation Xrotation Yrotation
          End Site
          {
            OFFSET 1.1221 -3.69964 12.103
          }
        }
      }
    }
  }
}
MOTION
Frames:	6
Frame Time:	0.00833333
53.1277 57.4806 77.5615 11.8315 -42.3497 172.083 -1.60901 -6.28212 -10.3218 0.805662 7.41578 -2.09068 2.55581 14.3579 -4.77903 -5.43016 -29.3955 -11.04 -0 0 0 -0 0 0 1.21639e-013 1.17301e-014 1.46535e-013 69.6971 33.1574 -1.00411 -18.2217 -10.928 34.5166 -0.0726293 -7.65858 -1.08287 -2.19861e-009 4.91834e-010 1.96909e-010 -3.80392e-009 8.51632e-010 3.32601e-010 -2.19861e-009 4.91831e-010 1.96901e-010 7.73091 5.47488 0.417314 -2.19862e-009 4.91828e-010 1.96909e-010 2.90554 0.965183 0.102902 -2.19861e-009 4.91827e-010 1.96908e-010 10.2786 0.731801 0.0259123 -2.19862e-009 4.91829e-010 1.96917e-010 2.22167 -0.733487 -0.20892 1.21455e-013 1.17255e-014 1.46262e-013 -64.4409 33.5064 5.74548 14.92 -7.7215 -27.4233 0.04477 -6.02245 0.849571 -2.27564e-009 3.34176e-010 9.37871e-010 -3.9364e-009 5.80143e-010 1.61485e-009 -2.27565e-009 3.34174e-010 9.37881e-010 -7.73091 5.47488 -0.417314 -2.27564e-009 3.34173e-010 9.3788e-010 -2.90554 0.965183 -0.102902 -2.27565e-009 3.34172e-010 9.37881e-010 -10.2786 0.731801 -0.0259123 -2.27564e-009 3.34176e-010 9.37874e-010 -2.22167 -0.733487 0.20892 -2.03217e-016 0 -3.88251e-019 -98.086 -62.7741 -77.4264 -0.611967 50.662 1.22053 5.20734 -10.4689 -8.08015 2.03217e-016 0 3.88251e-019 25.9148 -27.5884 -8.01357 -0.311385 55.4892 -6.01392 -2.14321 -17.6183 14.4853 
53.5985 57.8113 77.285 11.704 -42.585 172.624 -1.54352 -6.69689 -10.0217 0.950387 7.59443 -2.03894 2.4956 14.3877 -4.69871 -5.5256 -29.2396 -10.8517 -0 0 0 -0 0 0 -6.32534e-014 -2.1557e-015 -8.27084e-014 69.7216 33.2957 -0.703451 -18.3542 -11.0733 34.8179 -0.0787029 -7.98076 -1.12899 -4.59252e-010 1.19339e-009 -2.43275e-010 -8.01938e-010 2.0616e-009 -4.23549e-010 -4.59247e-010 1.1934e-009 -2.43283e-010 7.73091 5.47488 0.417314 -4.59253e-010 1.19339e-009 -2.43274e-010 2.90554 0.965183 0.102902 -4.59245e-010 1.19339e-009 -2.43276e-010 10.2786 0.731801 0.0259123 -4.5926e-010 1.19339e-009 -2.43266e-010 2.22167 -0.733487 -0.20892 -6.35237e-014 -2.16914e-015 -8.30943e-014 -64.806 33.1058 5.89413 14.8372 -7.6503 -27.2536 0.0436398 -5.94789 0.838972 -1.65582e-009 -1.10597e-010 1.75033e-009 -2.86521e-009 -1.89325e-010 3.02185e-009 -1.65583e-009 -1.10594e-010 1.75033e-009 -7.73091 5.47488 -0.417314 -1.65582e-009 -1.10597e-010 1.75033e-009 -2.90554 0.965183 -0.102902 -1.65583e-009 -1.10598e-010 1.75033e-009 -10.2786 0.731801 -0.0259123 -1.65582e-009 -1.10595e-010 1.75033e-009 -2.22167 -0.733487 0.20892 -2.03217e-016 0 -3.88251e-019 -97.5916 -63.6061 -77.9868 -0.62508 50.4614 1.10311 5.1293 -10.5205 -7.48153 2.03217e-016 0 3.88251e-019 25.1521 -28.9974 -7.64153 -0.258097 57.8812 -6.00146 -1.94746 -17.9079 14.439 
54.065 58.1265 77.1189 11.6003 -42.7462 173.186 -1.49658 -7.02788 -9.72204 1.06802 7.73999 -1.99058 2.43015 14.4512 -4.61264 -5.53806 -29.0915 -10.6404 -0 0 0 -0 0 0 -1.79551e-013 -1.58942e-014 -2.16427e-013 69.7956 33.4227 -0.4144 -18.4672 -11.198 35.077 -0.083626 -8.22154 -1.16354 7.42095e-010 1.37248e-009 -4.46346e-010 1.27314e-009 2.36982e-009 -7.70506e-010 7.42099e-010 1.37249e-009 -4.46356e-010 7.73091 5.47488 0.417314 7.42093e-010 1.37248e-009 -4.46346e-010 2.90554 0.965183 0.102902 7.42103e-010 1.37248e-009 -4.46347e-010 10.2786 0.731801 0.0259123 7.42089e-010 1.37248e-009 -4.46337e-010 2.22167 -0.733487 -0.20892 -1.79863e-013 -1.59127e-014 -2.16874e-013 -65.1507 32.7128 6.07788 14.7642 -7.58782 -27.1046 0.042136 -5.84852 0.824851 -9.29434e-010 -3.56626e-010 1.86458e-009 -1.60936e-009 -6.15269e-010 3.22148e-009 -9.2944e-010 -3.56621e-010 1.86459e-009 -7.73091 5.47488 -0.417314 -9.29433e-010 -3.56625e-010 1.86459e-009 -2.90554 0.965183 -0.102902 -9.29443e-010 -3.56625e-010 1.86459e-009 -10.2786 0.731801 -0.0259123 -9.2943e-010 -3.56623e-010 1.86458e-009 -2.22167 -0.733487 0.20892 -2.03217e-016 0 -3.88251e-019 -96.7659 -64.4435 -78.1935 -0.632196 50.1482 0.985138 5.02397 -10.567 -6.91099 2.03217e-016 0 3.88251e-019 24.2842 -30.342 -7.32231 -0.182487 60.1117 -5.98172 -1.75101 -18.2041 14.3523 
54.5659 58.4594 76.9309 11.5278 -42.8194 173.772 -1.48303 -7.25467 -9.43123 1.15348 7.83681 -1.94822 2.3614 14.5763 -4.51809 -5.44659 -28.9641 -10.3987 -0 0 0 -0 0 0 -1.86732e-013 -3.03809e-014 -2.04577e-013 69.9316 33.5332 -0.12489 -18.5486 -11.2883 35.2646 -0.0858967 -8.31913 -1.17758 1.14222e-009 6.99496e-010 -2.70798e-010 1.96836e-009 1.20732e-009 -4.63904e-010 1.14223e-009 6.99503e-010 -2.70808e-010 7.73091 5.47488 0.417314 1.14222e-009 6.99501e-010 -2.70798e-010 2.90554 0.965183 0.102902 1.14223e-009 6.99501e-010 -2.70799e-010 10.2786 0.731801 0.0259123 1.14222e-009 6.99501e-010 -2.70788e-010 2.22167 -0.733487 -0.20892 -1.87017e-013 -3.03986e-014 -2.05008e-013 -65.4798 32.3122 6.33174 14.7097 -7.54138 -26.9934 0.0405754 -5.73701 0.809019 5.45269e-012 -2.80389e-010 8.11302e-010 7.80848e-012 -4.84262e-010 1.40229e-009 5.44781e-012 -2.80383e-010 8.11312e-010 -7.73091 5.47488 -0.417314 5.45403e-012 -2.80387e-010 8.11308e-010 -2.90554 0.965183 -0.102902 5.44353e-012 -2.80387e-010 8.11309e-010 -10.2786 0.731801 -0.0259123 5.4568e-012 -2.80386e-010 8.113e-010 -2.22167 -0.733487 0.20892 -2.03217e-016 0 -3.88251e-019 -95.455 -65.2681 -77.9081 -0.632395 49.6495 0.858374 4.88593 -10.5765 -6.36157 2.03217e-016 0 3.88251e-019 23.2733 -31.5862 -7.06828 -0.0871495 62.2011 -5.94714 -1.55521 -18.5007 14.2404 
55.0992 58.8204 76.3619 11.4673 -42.8423 174.368 -1.49457 -7.43195 -9.15551 1.21824 7.90683 -1.91386 2.28213 14.7524 -4.41379 -5.28399 -28.8537 -10.1263 -0 0 0 -0 0 0 -1.32167e-013 -4.55154e-014 -9.79977e-014 70.1155 33.6445 0.148907 -18.6114 -11.3586 35.4092 -0.0855747 -8.29899 -1.17471 1.10626e-009 -5.13262e-010 1.4089e-010 1.91288e-009 -8.86917e-010 2.50631e-010 1.10626e-009 -5.13255e-010 1.40879e-010 7.73091 5.47488 0.417314 1.10625e-009 -5.13257e-010 1.40889e-010 2.90554 0.965183 0.102902 1.10626e-009 -5.13257e-010 1.4089e-010 10.2786 0.731801 0.0259123 1.10625e-009 -5.13256e-010 1.40901e-010 2.22167 -0.733487 -0.20892 -1.32381e-013 -4.55286e-014 -9.83674e-014 -65.8053 31.8892 6.63928 14.6626 -7.50139 -26.8975 0.0387756 -5.60035 0.789631 1.12196e-009 -2.47503e-011 -9.42483e-010 1.9395e-009 -4.32701e-011 -1.62793e-009 1.12195e-009 -2.47453e-011 -9.42475e-010 -7.73091 5.47488 -0.417314 1.12196e-009 -2.4749e-011 -9.42479e-010 -2.90554 0.965183 -0.102902 1.12195e-009 -2.47477e-011 -9.42479e-010 -10.2786 0.731801 -0.0259123 1.12196e-009 -2.47491e-011 -9.42489e-010 -2.22167 -0.733487 0.20892 -2.03217e-016 0 -3.88251e-019 -93.7664 -66.0815 -77.2459 -0.628974 49.0256 0.729549 4.71746 -10.5639 -5.83059 2.03217e-016 0 3.88251e-019 22.149 -32.7692 -6.85721 0.0177474 64.1648 -5.89175 -1.37388 -18.752 14.0913 
55.6645 59.1586 76.0577 11.406 -42.8161 174.976 -1.50884 -7.56374 -8.87063 1.26551 7.96882 -1.88007 2.19264 14.9247 -4.3067 -5.0732 -28.7339 -9.84002 -0 0 0 -0 0 0 -7.15028e-014 -5.93583e-014 2.88436e-014 70.331 33.7556 0.391438 -18.6753 -11.431 35.5552 -0.0851201 -8.28104 -1.17212 9.52554e-010 -1.75842e-009 5.77186e-010 1.654e-009 -3.03699e-009 1.00749e-009 9.52556e-010 -1.75841e-009 5.77174e-010 7.73091 5.47488 0.417314 9.5255e-010 -1.75842e-009 5.77184e-010 2.90554 0.965183 0.102902 9.52562e-010 -1.75842e-009 5.77185e-010 10.2786 0.731801 0.0259123 9.52551e-010 -1.75841e-009 5.77196e-010 2.22167 -0.733487 -0.20892 -7.164e-014 -5.9366e-014 2.85466e-014 -66.1045 31.4892 6.93247 14.6122 -7.45892 -26.7946 0.0363444 -5.41979 0.764019 2.21089e-009 2.3951e-010 -2.69104e-009 3.82328e-009 4.12726e-010 -4.64928e-009 2.21089e-009 2.39514e-010 -2.69103e-009 -7.73091 5.47488 -0.417314 2.21089e-009 2.39511e-010 -2.69103e-009 -2.90554 0.965183 -0.102902 2.21088e-009 2.39513e-010 -2.69104e-009 -10.2786 0.731801 -0.0259123 2.2109e-009 2.3951e-010 -2.69105e-009 -2.22167 -0.733487 0.20892 -2.03217e-016 0 -3.88251e-019 -91.8116 -66.9216 -76.2627 -0.625403 48.3951 0.615174 4.52852 -10.5906 -5.33588 2.03217e-016 0 3.88251e-019 20.9551 -33.9422 -6.68408 0.133498 65.9453 -5.81859 -1.19606 -19.0068 13.8788 
